<svg width="115" height="115" viewBox="0 0 115 115" fill="none" xmlns="http://www.w3.org/2000/svg">
<circle cx="57.5" cy="57.5" r="57.5" fill="#BF869C"/>
<path fill-rule="evenodd" clip-rule="evenodd" d="M58 81C70.7025 81 81 70.7025 81 58C81 45.2975 70.7025 35 58 35C45.2975 35 35 45.2975 35 58C35 70.7025 45.2975 81 58 81ZM58 83C71.8071 83 83 71.8071 83 58C83 44.1929 71.8071 33 58 33C44.1929 33 33 44.1929 33 58C33 71.8071 44.1929 83 58 83ZM58 69.8889C64.5661 69.8889 69.8889 64.5661 69.8889 58C69.8889 51.4339 64.5661 46.1111 58 46.1111C51.4339 46.1111 46.1111 51.4339 46.1111 58C46.1111 64.5661 51.4339 69.8889 58 69.8889ZM58 71.8889C65.6706 71.8889 71.8889 65.6706 71.8889 58C71.8889 50.3294 65.6706 44.1111 58 44.1111C50.3294 44.1111 44.1111 50.3294 44.1111 58C44.1111 65.6706 50.3294 71.8889 58 71.8889ZM58 60.7778C59.5341 60.7778 60.7778 59.5341 60.7778 58C60.7778 56.4659 59.5341 55.2222 58 55.2222C56.4659 55.2222 55.2222 56.4659 55.2222 58C55.2222 59.5341 56.4659 60.7778 58 60.7778Z" fill="white"/>
</svg>
