<svg width="115" height="115" viewBox="0 0 115 115" fill="none" xmlns="http://www.w3.org/2000/svg">
<circle cx="57.5" cy="57.5" r="57.5" fill="#BF869C"/>
<path d="M38.842 68.6612C38.842 68.6612 39.1379 71.8797 39.2066 72.8945C39.2983 74.2556 39.89 75.776 40.8775 76.8315C42.2712 78.3278 43.9129 78.8556 46.1045 78.8593C48.6816 78.863 67.4212 78.863 69.9983 78.8593C72.19 78.8556 73.8316 78.3278 75.2254 76.8315C76.2129 75.776 76.8045 74.2556 76.8983 72.8945C76.965 71.8797 77.2608 68.6612 77.2608 68.6612" stroke="white" stroke-width="1.5" stroke-linecap="round" stroke-linejoin="round"/>
<path d="M50.7001 49.8694V49.1824C50.7001 46.9231 52.7584 45.0935 55.3001 45.0935H60.6793C63.2189 45.0935 65.2793 46.9231 65.2793 49.1824L65.2814 49.8694" stroke="white" stroke-width="1.5" stroke-linecap="round" stroke-linejoin="round"/>
<path d="M57.9898 70.8856V68.4893" stroke="white" stroke-width="1.5" stroke-linecap="round" stroke-linejoin="round"/>
<path fill-rule="evenodd" clip-rule="evenodd" d="M38.7291 55.5353V61.9557C42.7249 64.2983 47.5124 65.939 52.7666 66.589C53.3957 64.5502 55.4645 63.0557 57.9791 63.0557C60.4541 63.0557 62.5645 64.5502 63.152 66.6076C68.427 65.9576 73.2332 64.3168 77.2499 61.9557V55.5353C77.2499 52.3983 74.4103 49.8724 70.8811 49.8724H45.1186C41.5895 49.8724 38.7291 52.3983 38.7291 55.5353Z" stroke="white" stroke-width="1.5" stroke-linecap="round" stroke-linejoin="round"/>
</svg>
