<?xml version="1.0" standalone="no"?>
<!DOCTYPE svg PUBLIC "-//W3C//DTD SVG 20010904//EN"
 "http://www.w3.org/TR/2001/REC-SVG-20010904/DTD/svg10.dtd">
<svg version="1.0" xmlns="http://www.w3.org/2000/svg"
 width="85.000000pt" height="85.000000pt" viewBox="0 0 85.000000 85.000000"
 preserveAspectRatio="xMidYMid meet">
<metadata>
Created by potrace 1.11, written by Peter Selinger 2001-2013
</metadata>
<g transform="translate(0.000000,85.000000) scale(0.100000,-0.100000)"
fill="#000000" stroke="none">
<path d="M324 781 c-53 -13 -119 -49 -149 -81 -28 -30 -28 -30 -6 -30 l23 0
-24 -32 c-13 -18 -29 -45 -36 -60 -10 -25 -17 -28 -61 -28 -49 0 -50 -1 -60
-37 -18 -63 -14 -83 13 -83 21 0 25 -6 31 -48 9 -65 13 -70 69 -74 45 -3 49
-6 71 -45 12 -24 28 -50 35 -58 11 -13 6 -15 -36 -15 l-48 0 28 -29 c15 -15
53 -41 84 -57 50 -25 68 -28 147 -28 102 0 146 15 228 77 39 30 56 37 93 37
33 0 51 5 61 17 15 20 53 89 53 98 0 3 -22 5 -49 5 l-50 0 10 32 c5 18 9 45 9
60 0 23 -4 28 -25 28 -22 0 -25 4 -25 34 0 19 -4 46 -10 60 -9 26 -9 26 41 26
48 0 50 1 43 22 -16 50 -56 98 -83 98 -15 0 -41 14 -61 32 -77 69 -219 104
-316 79z"/>
</g>
</svg>
